<svg id="Layer_1" data-name="Layer 1" xmlns="http://www.w3.org/2000/svg" viewBox="0 0 176.99 144.62"><defs><style>.cls-1{fill:#f99b1c;}</style></defs><title>testimonial</title><path class="cls-1" d="M83.62,104.24q10,10.65,10,26.83,0,17.46-11.29,29.33T54.06,172.31q-18.73,0-30.63-13.61T11.5,120q0-25.54,9-46.6t26.8-39.33a19,19,0,0,1,14.46-6.37,21.64,21.64,0,0,1,14.9,5.71Q83,39.17,83,46.39a16.3,16.3,0,0,1-5.1,11.91q-15.33,16.2-20.41,34Q73.61,93.64,83.62,104.24Zm94.89,0q10,10.65,10,26.83,0,17.46-11.27,29.33t-28.29,11.91q-18.75,0-30.64-13.61T106.39,120q0-25.54,8.93-46.6t26.8-39.33a19,19,0,0,1,14.47-6.37,21.65,21.65,0,0,1,14.89,5.71q6.39,5.77,6.39,13a16.39,16.39,0,0,1-5.11,11.91q-15.31,16.2-20.43,34Q168.52,93.64,178.51,104.24Z" transform="translate(-11.5 -27.69)"/></svg>